# File created by Blade
# Date/Time:  Wed Jan 21 14:37:25 2015
#---------------------------------------------------------
:version 1.10
:name HOM
:units
  mass 1.0
  length 1.000000
  angle deg
:documentation
     Acclaim Skeleton File
:root
   axis xyz
   order TX TY TZ RX RY RZ
   position 0.000000 0.000000 0.000000
   orientation 0 0 0
:bonedata
   begin
      id 1
      name Spine_dum
      direction 0.000000 1.000000 0.000000
      length 7.067664
      axis 0.0 0.0 0.0 xyz
   end
   begin
      id 2
      name LeftUpLeg_dum
      direction 1.000000 0.000000 0.000000
      length 4.013002
      axis 0.0 0.0 0.0 xyz
   end
   begin
      id 3
      name RightUpLeg_dum
      direction -1.000000 0.000000 0.000000
      length 4.013002
      axis 0.0 0.0 0.0 xyz
   end
   begin
      id 4
      name Spine
      direction 0.000000 1.000000 0.000000
      length 0.000000
      axis 0.0 0.0 0.0 xyz
      dof rx ry rz
   end
   begin
      id 5
      name Spine_dum1
      direction 0.000000 1.000000 0.000000
      length 15.039886
      axis 0.0 0.0 0.0 xyz
   end
   begin
      id 6
      name Spine_dum2
      direction 0.000000 1.000000 0.000000
      length 10.530368
      axis 0.0 0.0 0.0 xyz
   end
   begin
      id 7
      name Spine_dum3
      direction 0.000000 1.000000 0.000000
      length 10.530368
      axis 0.0 0.0 0.0 xyz
   end
   begin
      id 8
      name Head
      direction 0.000000 1.000000 0.000000
      length 4.527550
      axis 0.0 0.0 0.0 xyz
      dof rx ry rz
   end
   begin
      id 9
      name LeftShoulder
      direction 1.000000 0.000000 0.000000
      length 7.028855
      axis 0.0 0.0 -90.0 xyz
      dof rx ry rz
   end
   begin
      id 10
      name LeftArm
      direction 1.000000 0.000000 0.000000
      length 10.797705
      axis 0.0 0.0 -90.0 xyz
      dof rx ry rz
   end
   begin
      id 11
      name LeftForeArm
      direction 1.000000 0.000000 0.000000
      length 7.907442
      axis 0.0 0.0 -90.0 xyz
      dof ry rz rx
   end
   begin
      id 12
      name LeftHand
      direction 0.000000 0.000000 0.000000
      length 0.000000
      axis 0.0 0.0 -90.0 xyz
      dof rx ry rz
   end
   begin
      id 13
      name LeftHand_dum1
      direction 0.000000 0.000000 0.000000
      length 0.000000
      axis 0.0 0.0 -90.0 xyz
   end
   begin
      id 14
      name LeftHand_dum2
      direction 1.000000 0.000000 0.000000
      length 3.937000
      axis 0.0 0.0 -90.0 xyz
   end
   begin
      id 15
      name LeftHandThumb1
      direction 0.000000 0.000000 1.000000
      length 3.937000
      axis 0.0 0.0 -90.0 xyz
      dof rx rz ry
   end
   begin
      id 16
      name RightShoulder
      direction -1.000000 0.000000 0.000000
      length 7.028855
      axis 0.0 0.0 90.0 xyz
      dof rx ry rz
   end
   begin
      id 17
      name RightArm
      direction -1.000000 0.000000 0.000000
      length 10.797705
      axis 0.0 0.0 90.0 xyz
      dof rx ry rz
   end
   begin
      id 18
      name RightForeArm
      direction -1.000000 0.000000 0.000000
      length 7.907442
      axis 0.0 0.0 90.0 xyz
      dof ry rz rx
   end
   begin
      id 19
      name RightHand
      direction 0.000000 0.000000 0.000000
      length 0.000000
      axis 0.0 0.0 90.0 xyz
      dof rx ry rz
   end
   begin
      id 20
      name RightHand_dum1
      direction 0.000000 0.000000 0.000000
      length 0.000000
      axis 0.0 0.0 90.0 xyz
   end
   begin
      id 21
      name RightHand_dum2
      direction -1.000000 0.000000 0.000000
      length 3.937000
      axis 0.0 0.0 90.0 xyz
   end
   begin
      id 22
      name RightHandThumb1
      direction 0.000000 0.000000 1.000000
      length 3.937000
      axis 0.0 0.0 90.0 xyz
      dof rx rz ry
   end
   begin
      id 23
      name LeftUpLeg
      direction 0.000000 -1.000000 0.000000
      length 16.899758
      axis 0.0 0.0 0.0 xyz
      dof rx ry rz
   end
   begin
      id 24
      name LeftLeg
      direction 0.000000 -1.000000 0.000000
      length 17.389183
      axis 0.0 0.0 0.0 xyz
      dof rx ry rz
   end
   begin
      id 25
      name LeftFoot
      direction 0.000000 -0.258819 0.965926
      length 4.924528
      axis 15.0 0.0 0.0 xyz
      dof rx ry rz
   end
   begin
      id 26
      name LeftToeBase
      direction 0.000000 0.000000 1.000000
      length 2.952750
      axis 0.0 0.0 0.0 xyz
      dof rx ry rz
   end
   begin
      id 27
      name RightUpLeg
      direction 0.000000 -1.000000 0.000000
      length 16.899758
      axis 0.0 0.0 0.0 xyz
      dof rx ry rz
   end
   begin
      id 28
      name RightLeg
      direction 0.000000 -1.000000 0.000000
      length 17.389183
      axis 0.0 0.0 0.0 xyz
      dof rx ry rz
   end
   begin
      id 29
      name RightFoot
      direction 0.000000 -0.258819 0.965926
      length 4.924528
      axis 15.0 0.0 0.0 xyz
      dof rx ry rz
   end
   begin
      id 30
      name RightToeBase
      direction 0.000000 0.000000 1.000000
      length 2.952750
      axis 0.0 0.0 0.0 xyz
      dof rx ry rz
   end
:hierarchy
   begin
      root Spine_dum LeftUpLeg_dum RightUpLeg_dum
      Spine_dum Spine
      LeftUpLeg_dum LeftUpLeg
      RightUpLeg_dum RightUpLeg
      Spine Spine_dum1 Spine_dum2 Spine_dum3
      Spine_dum1 Head
      Spine_dum2 LeftShoulder
      Spine_dum3 RightShoulder
      LeftShoulder LeftArm
      LeftArm LeftForeArm
      LeftForeArm LeftHand
      LeftHand LeftHand_dum1 LeftHand_dum2
      LeftHand_dum1 LeftHandThumb1
      RightShoulder RightArm
      RightArm RightForeArm
      RightForeArm RightHand
      RightHand RightHand_dum1 RightHand_dum2
      RightHand_dum1 RightHandThumb1
      LeftUpLeg LeftLeg
      LeftLeg LeftFoot
      LeftFoot LeftToeBase
      RightUpLeg RightLeg
      RightLeg RightFoot
      RightFoot RightToeBase
   end

# File created by Blade
# Date/Time:  Wed Jan 21 14:37:15 2015
# Frame Rate: 120.000 fps
#------------------------------------------------------
:FULLY-SPECIFIED
:DEGREES
95
root 18.575787 35.515322 -21.285513 -176.495067 -4.718375 -178.878354
Spine -15.044094 1.571577 -0.163239
Head 8.656577 -7.134728 1.320094
LeftShoulder 0.208224 -32.126832 1.334985
LeftArm 12.301143 24.316778 -32.634683
LeftForeArm -21.222946 -0.000000 25.006392
LeftHand -7.071337 -0.000000 -10.105017
LeftHandThumb1 -26.253704 0.000000 33.147579
RightShoulder -1.949985 0.626070 -5.146717
RightArm 29.982834 15.504827 20.034896
RightForeArm -31.473491 -0.000000 24.406718
RightHand -5.784398 -0.000000 4.217471
RightHandThumb1 -24.326973 -0.000000 -32.862282
LeftUpLeg 2.643690 10.120633 1.886541
LeftLeg -5.979673 -0.000000 0.000000
LeftFoot -18.977148 29.072172 -10.111667
LeftToeBase 27.303916 -0.000000 -0.000000
RightUpLeg 2.549487 -10.713074 0.797809
RightLeg -3.058248 -0.000000 0.000000
RightFoot -20.348555 -27.608005 12.969394
RightToeBase 24.124252 -0.000000 -0.000000
96
root 18.575112 35.516122 -21.270199 -176.601114 -4.735975 -178.881040
Spine -15.029424 1.627429 -0.133343
Head 8.683623 -7.202335 1.284883
LeftShoulder 0.638861 -31.931211 0.726356
LeftArm 12.612524 24.970346 -33.526994
LeftForeArm -21.374517 -0.000000 26.545594
LeftHand -6.850563 0.000000 -10.409563
LeftHandThumb1 -26.253704 0.000000 33.147579
RightShoulder -1.596649 0.584582 -5.183208
RightArm 31.306764 15.189446 20.632192
RightForeArm -31.605273 -0.000000 25.225955
RightHand -5.888821 -0.000000 4.109864
RightHandThumb1 -24.326973 -0.000000 -32.862282
LeftUpLeg 2.712581 10.137074 1.895203
LeftLeg -5.960549 -0.000000 0.000000
LeftFoot -18.942361 29.054551 -10.073227
LeftToeBase 27.276354 -0.000000 -0.000000
RightUpLeg 2.633431 -10.781517 0.778026
RightLeg -3.060166 -0.000000 0.000000
RightFoot -20.314408 -27.584443 12.931908
RightToeBase 24.088111 -0.000000 -0.000000
97
root 18.573794 35.516364 -21.251074 -176.697912 -4.745140 -178.892365
Spine -15.001395 1.672626 -0.126218
Head 8.678416 -7.269397 1.284428
LeftShoulder 1.024770 -31.689203 0.204718
LeftArm 12.997539 25.499579 -34.464263
LeftForeArm -21.181446 -0.000000 28.004895
LeftHand -6.726993 -0.000000 -10.777542
LeftHandThumb1 -26.253704 0.000000 33.147579
RightShoulder -1.206341 0.747554 -5.230760
RightArm 32.577250 14.759138 21.256676
RightForeArm -31.970067 0.000000 25.939626
RightHand -5.880015 -0.000000 4.003874
RightHandThumb1 -24.326973 -0.000000 -32.862282
LeftUpLeg 2.767110 10.150945 1.889354
LeftLeg -5.940215 -0.000000 0.000000
LeftFoot -18.928327 29.037747 -10.048665
LeftToeBase 27.519829 -0.000000 -0.000000
RightUpLeg 2.704769 -10.833819 0.750569
RightLeg -3.067678 -0.000000 0.000000
RightFoot -20.275531 -27.579237 12.871001
RightToeBase 24.134983 -0.000000 -0.000000
98
root 18.573316 35.517321 -21.232195 -176.801025 -4.751391 -178.899926
Spine -14.979702 1.708834 -0.098842
Head 8.702189 -7.269106 1.281225
LeftShoulder 1.441072 -31.478120 -0.383265
LeftArm 13.372356 26.193495 -35.319647
LeftForeArm -21.486118 -0.000000 29.449273
LeftHand -6.519620 -0.000000 -11.089255
LeftHandThumb1 -26.253704 0.000000 33.147579
RightShoulder -0.786346 0.867334 -5.303622
RightArm 33.968891 14.466511 22.006403
RightForeArm -32.418612 -0.000000 26.500241
RightHand -5.673095 0.000000 3.975649
RightHandThumb1 -24.326973 -0.000000 -32.862282
LeftUpLeg 2.827038 10.151081 1.891936
LeftLeg -5.915400 -0.000000 0.000000
LeftFoot -18.908502 29.034504 -10.033847
LeftToeBase 27.493305 -0.000000 -0.000000
RightUpLeg 2.779311 -10.875841 0.727127
RightLeg -3.073704 -0.000000 0.000000
RightFoot -20.262108 -27.558499 12.904441
RightToeBase 24.091932 -0.000000 -0.000000
99
root 18.573246 35.517714 -21.214058 -176.890449 -4.746691 -178.904786
Spine -14.959495 1.772946 -0.086595
Head 8.666708 -7.299946 1.319570
LeftShoulder 1.842355 -31.227415 -0.936769
LeftArm 13.845790 27.077498 -36.081476
LeftForeArm -22.099814 -0.000000 30.925124
LeftHand -6.420650 -0.000000 -11.214172
LeftHandThumb1 -26.253704 0.000000 33.147579
RightShoulder -0.372076 1.103572 -5.394038
RightArm 35.289396 14.018904 22.725925
RightForeArm -33.031965 0.000000 27.083406
RightHand -5.838573 0.000000 3.966163
RightHandThumb1 -24.326973 -0.000000 -32.862282
LeftUpLeg 2.884222 10.168725 1.895067
LeftLeg -5.909654 -0.000000 0.000000
LeftFoot -18.874966 29.040677 -9.993950
LeftToeBase 27.509796 -0.000000 -0.000000
RightUpLeg 2.850479 -10.901466 0.707320
RightLeg -3.091308 -0.000000 0.000000
RightFoot -20.206089 -27.553844 12.832199
RightToeBase 24.090543 -0.000000 -0.000000
